<svg width="45" height="45" viewBox="0 0 45 45" fill="none" xmlns="http://www.w3.org/2000/svg">
<g clip-path="url(#clip0_16_151608)">
<g clip-path="url(#clip1_16_151608)">
<path fill-rule="evenodd" clip-rule="evenodd" d="M-7.5 0H78V3.46875H-7.5V0ZM-7.5 6.92813H78V10.3969H-7.5V6.92813ZM-7.5 13.8469H78V17.3156H-7.5V13.8469ZM-7.5 20.7656H78V24.2344H-7.5V20.7656ZM-7.5 27.7031H78V31.1531H-7.5V27.7031ZM-7.5 34.6125H78V38.0813H-7.5V34.6125ZM-7.5 41.5312H78V45H-7.5V41.5312Z" fill="#BD3D44"/>
<path fill-rule="evenodd" clip-rule="evenodd" d="M-7.5 3.46875H78V6.92813H-7.5V3.46875ZM-7.5 10.3875H78V13.8469H-7.5V10.3875ZM-7.5 17.3063H78V20.775H-7.5V17.3063ZM-7.5 24.2344H78V27.7031H-7.5V24.2344ZM-7.5 31.1531H78V34.6219H-7.5V31.1531ZM-7.5 38.0719H78V41.5406H-7.5V38.0719Z" fill="white"/>
<path fill-rule="evenodd" clip-rule="evenodd" d="M-7.5 0H26.7V24.2344H-7.5V0Z" fill="#192F5D"/>
<path fill-rule="evenodd" clip-rule="evenodd" d="M-4.64999 1.03125L-4.33124 1.99687H-3.33749L-4.14374 2.5875L-3.83436 3.55313L-4.64999 2.95313L-5.45624 3.54375L-5.15624 2.5875L-5.97186 1.99687H-4.94999L-4.64999 1.03125ZM1.05001 1.03125L1.35939 1.99687H2.37189L1.55626 2.5875L1.85626 3.55313L1.05001 2.95313L0.234387 3.54375L0.543762 2.5875L-0.262488 1.99687H0.731262L1.05001 1.03125ZM6.75001 1.03125L7.05939 1.99687H8.06251L7.25626 2.5875L7.56564 3.55313L6.75001 2.95313L5.93439 3.54375L6.24376 2.5875L5.42814 1.99687H6.44064L6.75001 1.03125ZM12.45 1.03125L12.7594 1.99687H13.7719L12.9563 2.5875L13.2656 3.55313L12.45 2.95313L11.6344 3.54375L11.9531 2.5875L11.1281 1.99687H12.1313L12.45 1.03125ZM18.15 1.03125L18.4594 1.99687H19.4625L18.6563 2.5875L18.9656 3.55313L18.15 2.95313L17.3344 3.54375L17.6438 2.5875L16.8375 1.99687H17.8406L18.15 1.03125ZM23.85 1.03125L24.1594 1.99687H25.1719L24.3469 2.5875L24.6656 3.55313L23.85 2.95313L23.0344 3.54375L23.3531 2.5875L22.5281 1.99687H23.5406L23.85 1.03125ZM-1.79999 3.46875L-1.49061 4.425H-0.468738L-1.28436 5.00625L-0.984363 5.97188L-1.78124 5.38125L-2.59686 5.97188L-2.30624 5.00625L-3.09374 4.425H-2.09061L-1.79999 3.46875ZM3.90001 3.46875L4.21876 4.425H5.22189L4.39689 5.00625L4.71564 5.97188L3.90001 5.38125L3.08439 5.97188L3.39376 5.00625L2.57814 4.425H3.59064L3.90001 3.46875ZM9.60001 3.46875L9.90939 4.425H10.9219L10.1063 5.00625L10.4156 5.97188L9.60001 5.38125L8.78439 5.97188L9.09376 5.00625L8.28751 4.425H9.28126L9.60001 3.46875ZM15.3 3.46875L15.6188 4.425H16.6219L15.7969 5.00625L16.1156 5.97188L15.3 5.38125L14.4938 5.97188L14.7938 5.00625L13.9781 4.425H15L15.3 3.46875ZM21 3.46875L21.3094 4.425H22.3219L21.5063 5.00625L21.8156 5.97188L21 5.38125L20.1844 5.97188L20.4938 5.00625L19.6875 4.425H20.6906L21 3.46875ZM-4.64999 5.86875L-4.33124 6.84375H-3.33749L-4.14374 7.43438L-3.83436 8.39063L-4.64999 7.8L-5.45624 8.39063L-5.15624 7.43438L-5.97186 6.84375H-4.94999L-4.64999 5.86875ZM1.05001 5.86875L1.35939 6.84375H2.37189L1.55626 7.43438L1.85626 8.39063L1.05001 7.8L0.234387 8.39063L0.543762 7.425L-0.262488 6.83438H0.731262L1.05001 5.86875ZM6.75001 5.86875L7.05939 6.83438H8.06251L7.25626 7.425L7.56564 8.38125L6.75001 7.79063L5.93439 8.38125L6.24376 7.41563L5.42814 6.825H6.44064L6.75001 5.86875ZM12.45 5.86875L12.7594 6.83438H13.7719L12.9563 7.425L13.2656 8.38125L12.45 7.79063L11.6344 8.38125L11.9531 7.41563L11.1281 6.825H12.1313L12.45 5.86875ZM18.15 5.86875L18.4594 6.83438H19.4625L18.6563 7.425L18.9656 8.38125L18.15 7.79063L17.3344 8.38125L17.6438 7.41563L16.8375 6.825H17.8406L18.15 5.86875ZM23.85 5.86875L24.1594 6.83438H25.1719L24.3469 7.425L24.6656 8.38125L23.85 7.79063L23.0344 8.38125L23.3531 7.41563L22.5281 6.825H23.5406L23.85 5.86875ZM-1.79999 8.30625L-1.49061 9.2625H-0.468738L-1.28436 9.85313L-0.974988 10.8188L-1.79061 10.2188L-2.60624 10.8094L-2.29686 9.85313L-3.10311 9.2625H-2.09999L-1.79999 8.30625ZM3.90001 8.30625L4.21876 9.2625H5.22189L4.39689 9.85313L4.71564 10.8188L3.90001 10.2188L3.08439 10.8094L3.39376 9.85313L2.57814 9.2625H3.59064L3.90001 8.30625ZM9.60001 8.30625L9.90939 9.2625H10.9219L10.1063 9.85313L10.4156 10.8188L9.60001 10.2188L8.78439 10.8094L9.09376 9.85313L8.28751 9.2625H9.28126L9.60001 8.30625ZM15.3 8.30625L15.6188 9.2625H16.6219L15.8063 9.85313L16.1156 10.8188L15.3 10.2188L14.4938 10.8094L14.7938 9.85313L13.9781 9.2625H15L15.3 8.30625ZM21 8.30625L21.3094 9.2625H22.3219L21.5063 9.85313L21.8156 10.8188L21 10.2188L20.1844 10.8094L20.4938 9.85313L19.6875 9.2625H20.6906L21 8.30625ZM-4.64999 10.7344L-4.33124 11.6906H-3.33749L-4.14374 12.2813L-3.83436 13.2469L-4.64999 12.6469L-5.45624 13.2375L-5.15624 12.2813L-5.97186 11.6906H-4.94999L-4.64999 10.7344ZM1.05001 10.7344L1.35939 11.6906H2.37189L1.55626 12.2813L1.85626 13.2375L1.05001 12.6469L0.234387 13.2375L0.543762 12.2813L-0.262488 11.6906H0.731262L1.05001 10.7344ZM6.75001 10.7344L7.05939 11.6906H8.06251L7.25626 12.2813L7.56564 13.2469L6.75001 12.6469L5.93439 13.2375L6.24376 12.2813L5.42814 11.6906H6.44064L6.75001 10.7344ZM12.45 10.7344L12.7594 11.6906H13.7719L12.9563 12.2813L13.2656 13.2469L12.45 12.6469L11.6344 13.2375L11.9531 12.2813L11.1281 11.6906H12.1313L12.45 10.7344ZM18.15 10.7344L18.4594 11.6906H19.4625L18.6563 12.2813L18.9656 13.2469L18.15 12.6469L17.3344 13.2375L17.6438 12.2813L16.8375 11.6906H17.8406L18.15 10.7344ZM23.85 10.7344L24.1594 11.6906H25.1719L24.3469 12.2813L24.6656 13.2469L23.85 12.6469L23.0344 13.2375L23.3438 12.2813L22.5188 11.6906H23.5313L23.85 10.7344ZM-1.79999 13.1531L-1.49061 14.1188H-0.468738L-1.28436 14.7L-0.974988 15.6656L-1.79061 15.0656L-2.60624 15.6656L-2.29686 14.7L-3.10311 14.1094H-2.09999L-1.79999 13.1531ZM3.90001 13.1531L4.21876 14.1188H5.22189L4.39689 14.7L4.71564 15.6656L3.90001 15.0656L3.08439 15.6656L3.39376 14.7L2.57814 14.1094H3.59064L3.90001 13.1531ZM9.60001 13.1531L9.90939 14.1188H10.9219L10.1063 14.7L10.4156 15.6656L9.60001 15.0656L8.78439 15.6656L9.09376 14.7L8.28751 14.1094H9.28126L9.60001 13.1531ZM15.3 13.1531L15.6188 14.1188H16.6219L15.8063 14.7L16.1156 15.6656L15.3 15.0656L14.4938 15.6656L14.7938 14.7L13.9781 14.1094H15L15.3 13.1531ZM21 13.1531L21.3094 14.1188H22.3219L21.5063 14.7L21.8156 15.6656L21 15.0656L20.1844 15.6656L20.4938 14.7L19.6875 14.1094H20.6906L21 13.1531ZM-4.64999 15.5719L-4.33124 16.5375H-3.33749L-4.14374 17.1281L-3.83436 18.075L-4.64999 17.4938L-5.45624 18.075L-5.15624 17.1188L-5.97186 16.5281H-4.94999L-4.64999 15.5719ZM1.05001 15.5719L1.35939 16.5375H2.37189L1.55626 17.1281L1.86564 18.075L1.05001 17.4938L0.234387 18.075L0.553138 17.1188L-0.262488 16.5281H0.731262L1.05001 15.5719ZM6.75001 15.5719L7.05939 16.5375H8.06251L7.25626 17.1281L7.56564 18.075L6.75001 17.4938L5.93439 18.075L6.24376 17.1188L5.42814 16.5281H6.44064L6.75001 15.5719ZM12.45 15.5719L12.7594 16.5375H13.7719L12.9563 17.1281L13.2656 18.075L12.45 17.4938L11.6344 18.075L11.9531 17.1188L11.1281 16.5281H12.1313L12.45 15.5719ZM18.15 15.5719L18.4594 16.5375H19.4625L18.6563 17.1281L18.9656 18.075L18.15 17.4938L17.3344 18.075L17.6438 17.1188L16.8375 16.5281H17.8406L18.15 15.5719ZM23.85 15.5719L24.1594 16.5375H25.1719L24.3469 17.1281L24.6656 18.075L23.85 17.4938L23.0344 18.075L23.3531 17.1188L22.5281 16.5281H23.5406L23.85 15.5719ZM-1.79999 18L-1.49061 18.9563H-0.468738L-1.28436 19.5469L-0.974988 20.5125L-1.79061 19.9125L-2.60624 20.5031L-2.29686 19.5469L-3.10311 18.9563H-2.09999L-1.79999 18ZM3.90001 18L4.21876 18.9563H5.22189L4.39689 19.5469L4.71564 20.5125L3.90001 19.9125L3.08439 20.5031L3.39376 19.5469L2.57814 18.9563H3.59064L3.90001 18ZM9.60001 18L9.90939 18.9563H10.9219L10.1063 19.5469L10.4156 20.5125L9.60001 19.9125L8.78439 20.5031L9.09376 19.5469L8.28751 18.9563H9.28126L9.60001 18ZM15.3 18L15.6188 18.9563H16.6219L15.8063 19.5469L16.1156 20.5125L15.3 19.9125L14.4938 20.5031L14.7938 19.5469L13.9781 18.9563H15L15.3 18ZM21 18L21.3094 18.9563H22.3219L21.5063 19.5469L21.8156 20.5125L21 19.9125L20.1844 20.5031L20.4938 19.5469L19.6875 18.9563H20.6906L21 18ZM-4.64999 20.4281L-4.33124 21.3844H-3.33749L-4.14374 21.975L-3.83436 22.9313L-4.64999 22.3406L-5.45624 22.9313L-5.15624 21.9656L-5.97186 21.375H-4.94999L-4.64999 20.4281ZM1.05001 20.4281L1.35939 21.3844H2.37189L1.55626 21.975L1.86564 22.9313L1.05001 22.3406L0.234387 22.9313L0.553138 21.9656L-0.262488 21.375H0.731262L1.05001 20.4281ZM6.75001 20.4281L7.05939 21.3844H8.06251L7.27501 21.975L7.58439 22.9313L6.76876 22.3406L5.95314 22.9313L6.26251 21.9656L5.44689 21.375H6.45939L6.75001 20.4281ZM12.45 20.4281L12.7594 21.3844H13.7719L12.9563 21.975L13.2656 22.9313L12.45 22.3406L11.6344 22.9313L11.9531 21.9656L11.1281 21.375H12.1313L12.45 20.4281ZM18.15 20.4281L18.4594 21.3844H19.4625L18.6563 21.975L18.9656 22.9313L18.15 22.3406L17.3344 22.9313L17.6438 21.9656L16.8375 21.375H17.8406L18.15 20.4281ZM23.85 20.4281L24.1594 21.3844H25.1719L24.3469 21.975L24.6656 22.9313L23.85 22.3406L23.0344 22.9313L23.3531 21.9656L22.5281 21.375H23.5406L23.85 20.4281Z" fill="white"/>
</g>
</g>
<defs>
<clipPath id="clip0_16_151608">
<rect width="45" height="45" rx="22.5" fill="white"/>
</clipPath>
<clipPath id="clip1_16_151608">
<rect width="60" height="45" fill="white" transform="translate(-7.5)"/>
</clipPath>
</defs>
</svg>
