<svg width="28" height="28" viewBox="0 0 28 28" fill="none" xmlns="http://www.w3.org/2000/svg">
<g clip-path="url(#clip0_497_114)">
<path d="M0 0H28V28H0V0Z" fill="#1F2937"/>
<path d="M14 28C21.732 28 28 21.732 28 14C28 6.26801 21.732 0 14 0C6.26801 0 0 6.26801 0 14C0 21.732 6.26801 28 14 28Z" fill="#1F2937"/>
<path d="M16.066 13.0689L17.4127 10.7838L21.0426 16.4375L21.0443 17.5226L21.0325 10.0563C21.0239 9.87378 20.9269 9.70683 20.7724 9.60836L14.2372 5.84922C14.0844 5.77405 13.8904 5.77491 13.7378 5.8516C13.7173 5.86187 13.6978 5.87312 13.6794 5.8854L13.6566 5.89971L7.31321 9.57565L7.28862 9.58682C7.25696 9.60137 7.22494 9.61987 7.19495 9.64136C7.07465 9.7276 6.99479 9.85516 6.96896 9.99822C6.96508 10.0199 6.96219 10.042 6.96088 10.0643L6.97085 16.1485L10.3519 10.908C10.7776 10.2131 11.705 9.98931 12.566 10.0015L13.5765 10.0281L7.6225 19.5767L8.32437 19.9807L14.3496 10.0378L17.0129 10.0282L11.0031 20.222L13.5075 21.6625L13.8068 21.8346C13.9334 21.886 14.0826 21.8886 14.2102 21.8425L20.8372 18.0021L19.5702 18.7363L16.066 13.0689ZM16.5798 20.4692L14.0503 16.4992L15.5945 13.879L18.9164 19.1151L16.5798 20.4692Z" fill="#2D374B"/>
<path d="M14.0504 16.4991L16.5799 20.4692L18.9166 19.115L15.5945 13.8789L14.0504 16.4991Z" fill="#28A0F0"/>
<path d="M21.0443 17.5224L21.0426 16.4374L17.4127 10.7837L16.066 13.0689L19.5702 18.7361L20.8371 18.0019C20.9615 17.9009 21.0366 17.7528 21.0446 17.593L21.0443 17.5224Z" fill="#28A0F0"/>
<path d="M5.83337 18.5457L7.62254 19.5766L13.5765 10.0281L12.5661 10.0014C11.7051 9.98929 10.7776 10.2131 10.3519 10.908L6.97084 16.1485L5.83337 17.8962V18.5457Z" fill="white"/>
<path d="M17.0129 10.0281L14.3497 10.0377L8.3244 19.9806L10.4304 21.1932L11.0032 20.2219L17.0129 10.0281Z" fill="white"/>
<path d="M22.1666 10.0145C22.1444 9.45753 21.8428 8.94767 21.3704 8.65082L14.7496 4.84333C14.2823 4.60806 13.6986 4.60776 13.2306 4.84318C13.1751 4.8711 6.7919 8.57313 6.7919 8.57313C6.70355 8.6155 6.61846 8.66597 6.53842 8.72327C6.11674 9.02547 5.85971 9.49511 5.83331 10.0111V17.8963L6.97078 16.1486L6.96085 10.0644C6.96217 10.0421 6.96497 10.0202 6.96893 9.9986C6.99466 9.85545 7.07458 9.72775 7.19492 9.64144C7.22495 9.61995 13.7173 5.86194 13.7378 5.85163C13.8904 5.77499 14.0844 5.77409 14.2372 5.84924L20.7724 9.60832C20.9271 9.70678 21.0239 9.87373 21.0325 10.0562V17.5931C21.0246 17.7529 20.9615 17.9011 20.8372 18.002L19.5702 18.7362L18.9164 19.1151L16.5798 20.4692L14.2102 21.8424C14.0826 21.8885 13.9334 21.8859 13.8068 21.8345L11.0031 20.2219L10.4304 21.1933L12.9499 22.6439C13.0333 22.6913 13.1075 22.7333 13.1684 22.7675C13.2626 22.8204 13.3269 22.8558 13.3497 22.8669C13.5288 22.9538 13.7865 23.0044 14.0186 23.0044C14.2314 23.0044 14.4391 22.9653 14.6355 22.8883L21.5183 18.9024C21.9134 18.5963 22.1458 18.1347 22.1666 17.6346V10.0145Z" fill="#96BEDC"/>
</g>
<defs>
<clipPath id="clip0_497_114">
<rect width="28" height="28" fill="white"/>
</clipPath>
</defs>
</svg>
