<svg width="28" height="28" viewBox="0 0 28 28" fill="none" xmlns="http://www.w3.org/2000/svg">
<g clip-path="url(#clip0_497_144)">
<path d="M0 0H28V28H0V0Z" fill="#E84142"/>
<path fill-rule="evenodd" clip-rule="evenodd" d="M14 23.3334C19.1547 23.3334 23.3334 19.1548 23.3334 14.0001C23.3334 8.84543 19.1547 4.66675 14 4.66675C8.84536 4.66675 4.66669 8.84543 4.66669 14.0001C4.66669 19.1548 8.84536 23.3334 14 23.3334ZM11.1799 18.2285H8.99039C8.47128 18.2285 8.2117 18.2285 8.05625 18.128C7.88825 18.0194 7.78225 17.837 7.77102 17.6374C7.76062 17.4527 7.88917 17.2274 8.14629 16.777L12.9402 8.37859C13.2011 7.92147 13.3316 7.69292 13.4977 7.60783C13.677 7.51592 13.8895 7.51576 14.069 7.60742C14.2351 7.69225 14.3659 7.92064 14.6275 8.37734L15.7331 10.3077C15.9234 10.6398 16.0185 10.8059 16.0604 10.9811C16.1059 11.1718 16.106 11.3705 16.0606 11.5613C16.0189 11.7365 15.924 11.9026 15.7339 12.235L12.8673 17.2498C12.6746 17.587 12.5782 17.7556 12.4463 17.8816C12.3025 18.0188 12.1282 18.1198 11.9378 18.1765C11.7628 18.2285 11.5685 18.2285 11.1799 18.2285ZM18.9915 18.2285H16.4529C15.9291 18.2285 15.6672 18.2285 15.5112 18.127C15.3427 18.0175 15.237 17.8339 15.2271 17.6333C15.2179 17.4477 15.3497 17.2215 15.6133 16.7692L16.8805 14.5952C17.1408 14.1486 17.271 13.9254 17.4357 13.8418C17.6139 13.7513 17.8245 13.7512 18.0026 13.8413C18.1676 13.9247 18.298 14.1478 18.559 14.5939L19.8303 16.768C20.095 17.2205 20.2273 17.4469 20.2184 17.6326C20.2086 17.8334 20.1029 18.0173 19.9343 18.1269C19.7784 18.2285 19.516 18.2285 18.9915 18.2285Z" fill="white"/>
</g>
<defs>
<clipPath id="clip0_497_144">
<rect width="28" height="28" fill="white"/>
</clipPath>
</defs>
</svg>
