<svg width="28" height="28" viewBox="0 0 28 28" fill="none" xmlns="http://www.w3.org/2000/svg">
<g clip-path="url(#clip0_497_128)">
<path d="M28 0H0V28H28V0Z" fill="black"/>
<path d="M9.0452 7.92854L13.6891 5.24805L18.3331 7.92854L16.6257 8.91876L13.6891 7.22854L10.7525 8.91876L9.0452 7.92854ZM18.3331 11.309L16.6257 10.3188L13.6891 12.009L10.7525 10.3188L9.0452 11.309V13.2896L11.9818 14.9797V18.3602L13.6891 19.3505L15.3965 18.3602V14.9797L18.3331 13.2896V11.309ZM18.3331 16.67V14.6895L16.6257 15.6797V17.6602L18.3331 16.67ZM19.5452 17.37L16.6086 19.0602V21.0407L21.2525 18.3602V12.9992L19.5452 13.9895V17.37ZM17.8379 9.61876L19.5452 10.609V12.5896L21.2525 11.5992V9.61876L19.5452 8.62854L17.8379 9.61876ZM11.9818 19.7773V21.7578L13.6891 22.748L15.3965 21.7578V19.7773L13.6891 20.7676L11.9818 19.7773ZM9.0452 16.67L10.7525 17.6602V15.6797L9.0452 14.6895V16.67ZM11.9818 9.61876L13.6891 10.609L15.3965 9.61876L13.6891 8.62854L11.9818 9.61876ZM7.83299 10.609L9.54027 9.61876L7.83299 8.62854L6.12567 9.61876V11.5992L7.83299 12.5896V10.609ZM7.83299 13.9895L6.12567 12.9992V18.3602L10.7696 21.0407V19.0602L7.83299 17.37V13.9895Z" fill="#F0B90B"/>
</g>
<defs>
<clipPath id="clip0_497_128">
<rect width="28" height="28" fill="white"/>
</clipPath>
</defs>
</svg>
