<svg width="45" height="45" viewBox="0 0 45 45" fill="none" xmlns="http://www.w3.org/2000/svg">
<g clip-path="url(#clip0_16_151779)">
<g clip-path="url(#clip1_16_151779)">
<path d="M-7.5 0H52.5V45H-7.5V0Z" fill="#003399"/>
<path d="M22.7895 8.1107L23.1698 9.25076L24.3715 9.2601C24.5272 9.26129 24.5916 9.4598 24.4665 9.55229L23.4997 10.2662L23.8621 11.412C23.909 11.5602 23.7402 11.6831 23.6135 11.5925L22.6359 10.8937L21.6582 11.5925C21.5317 11.683 21.3627 11.5603 21.4097 11.412L21.7721 10.2662L20.8053 9.55229C20.6802 9.4598 20.7446 9.26129 20.9003 9.2601L22.102 9.25076L22.4823 8.1107C22.5314 7.9631 22.7403 7.9631 22.7895 8.1107Z" fill="#FFE15A"/>
<path d="M22.7895 32.5882L23.1698 33.7283L24.3715 33.7376C24.5272 33.7388 24.5916 33.9373 24.4665 34.0298L23.4997 34.7438L23.8621 35.8895C23.909 36.0377 23.7402 36.1606 23.6135 36.0701L22.6359 35.3712L21.6582 36.0701C21.5317 36.1605 21.3627 36.0379 21.4097 35.8895L21.7721 34.7438L20.8053 34.0298C20.6802 33.9373 20.7446 33.7388 20.9003 33.7376L22.102 33.7283L22.4823 32.5882C22.5314 32.4406 22.7403 32.4406 22.7895 32.5882Z" fill="#FFE15A"/>
<path d="M35.028 20.35L35.4083 21.49L36.61 21.4994C36.7657 21.5005 36.8301 21.6991 36.705 21.7915L35.7382 22.5055L36.1006 23.6512C36.1476 23.7995 35.9787 23.9224 35.8521 23.8318L34.8744 23.1329L33.8968 23.8318C33.7702 23.9222 33.6012 23.7996 33.6482 23.6512L34.0106 22.5055L33.0438 21.7915C32.9187 21.6991 32.9831 21.5005 33.1388 21.4994L34.3405 21.49L34.7208 20.35C34.7699 20.2024 34.9788 20.2024 35.028 20.35Z" fill="#FFE15A"/>
<path d="M10.5502 20.35L10.9305 21.49L12.1322 21.4994C12.2879 21.5005 12.3524 21.6991 12.2272 21.7915L11.2604 22.5055L11.6228 23.6512C11.6698 23.7995 11.5009 23.9224 11.3743 23.8318L10.3966 23.1329L9.41897 23.8318C9.29243 23.9222 9.12346 23.7996 9.1704 23.6512L9.53284 22.5055L8.56604 21.7915C8.4409 21.6991 8.50535 21.5005 8.661 21.4994L9.86273 21.49L10.243 20.35C10.2922 20.2024 10.5011 20.2024 10.5502 20.35Z" fill="#FFE15A"/>
<path d="M12.3876 13.9584L12.7679 15.0984L13.9696 15.1078C14.1253 15.1089 14.1898 15.3075 14.0646 15.3999L13.0978 16.1139L13.4602 17.2596C13.5072 17.4079 13.3383 17.5308 13.2117 17.4402L12.234 16.7413L11.2564 17.4402C11.1298 17.5306 10.9609 17.408 11.0078 17.2596L11.3702 16.1139L10.4034 15.3999C10.2783 15.3075 10.3428 15.1089 10.4984 15.1078L11.7001 15.0984L12.0804 13.9584C12.1296 13.8108 12.3383 13.8108 12.3876 13.9584Z" fill="#FFE15A"/>
<path d="M33.5859 26.1966L33.9662 27.3367L35.1679 27.346C35.3235 27.3472 35.388 27.5457 35.2628 27.6382L34.296 28.3522L34.6585 29.4979C34.7054 29.6461 34.5366 29.769 34.4099 29.6785L33.4323 28.9796L32.4546 29.6785C32.3281 29.7689 32.1591 29.6463 32.206 29.4979L32.5685 28.3522L31.6017 27.6382C31.4765 27.5457 31.541 27.3472 31.6966 27.346L32.8984 27.3367L33.2787 26.1966C33.3279 26.049 33.5367 26.049 33.5859 26.1966Z" fill="#FFE15A"/>
<path d="M29.1064 9.47886L29.4867 10.6189L30.6884 10.6283C30.844 10.6294 30.9085 10.828 30.7834 10.9205L29.8166 11.6344L30.179 12.7801C30.2259 12.9284 30.0571 13.0513 29.9304 12.9607L28.9528 12.2618L27.9751 12.9607C27.8486 13.0511 27.6796 12.9285 27.7265 12.7801L28.089 11.6344L27.1222 10.9205C26.997 10.828 27.0615 10.6294 27.2172 10.6283L28.4189 10.6189L28.7992 9.47886C28.8483 9.33126 29.057 9.33126 29.1064 9.47886Z" fill="#FFE15A"/>
<path d="M16.8671 30.6761L17.2474 31.8162L18.4491 31.8255C18.6048 31.8267 18.6692 32.0252 18.5441 32.1177L17.5773 32.8316L17.9397 33.9774C17.9867 34.1256 17.8178 34.2485 17.6912 34.158L16.7135 33.4591L15.7359 34.158C15.6093 34.2484 15.4403 34.1257 15.4873 33.9774L15.8497 32.8316L14.8829 32.1177C14.7578 32.0252 14.8222 31.8267 14.9779 31.8255L16.1796 31.8162L16.5599 30.6761C16.6091 30.5285 16.8178 30.5285 16.8671 30.6761Z" fill="#FFE15A"/>
<path d="M33.2787 13.9584L32.8984 15.0984L31.6966 15.1078C31.541 15.1089 31.4765 15.3075 31.6017 15.3999L32.5685 16.1139L32.206 17.2596C32.1591 17.4079 32.328 17.5308 32.4546 17.4402L33.4323 16.7413L34.4099 17.4402C34.5365 17.5306 34.7054 17.408 34.6585 17.2596L34.296 16.1139L35.2628 15.3999C35.388 15.3075 35.3235 15.1089 35.1679 15.1078L33.9662 15.0984L33.5859 13.9584C33.5367 13.8108 33.3279 13.8108 33.2787 13.9584Z" fill="#FFE15A"/>
<path d="M12.0804 26.1966L11.7001 27.3367L10.4984 27.346C10.3428 27.3472 10.2783 27.5457 10.4034 27.6382L11.3702 28.3522L11.0078 29.4979C10.9609 29.6461 11.1297 29.769 11.2564 29.6785L12.234 28.9796L13.2117 29.6785C13.3382 29.7689 13.5072 29.6463 13.4602 29.4979L13.0978 28.3522L14.0646 27.6382C14.1898 27.5457 14.1253 27.3472 13.9696 27.346L12.7679 27.3367L12.3876 26.1966C12.3383 26.049 12.1296 26.049 12.0804 26.1966Z" fill="#FFE15A"/>
<path d="M16.5599 9.47886L16.1796 10.6189L14.9779 10.6283C14.8222 10.6294 14.7578 10.828 14.8829 10.9205L15.8497 11.6344L15.4873 12.7801C15.4403 12.9284 15.6092 13.0513 15.7359 12.9607L16.7135 12.2618L17.6912 12.9607C17.8177 13.0511 17.9867 12.9285 17.9397 12.7801L17.5773 11.6344L18.5441 10.9205C18.6692 10.828 18.6048 10.6294 18.4491 10.6283L17.2474 10.6189L16.8671 9.47886C16.8178 9.33126 16.6091 9.33126 16.5599 9.47886Z" fill="#FFE15A"/>
<path d="M28.7987 30.6761L28.4184 31.8162L27.2167 31.8255C27.061 31.8267 26.9966 32.0252 27.1217 32.1177L28.0885 32.8316L27.7261 33.9774C27.6791 34.1256 27.848 34.2485 27.9746 34.158L28.9523 33.4591L29.9299 34.158C30.0565 34.2484 30.2254 34.1257 30.1785 33.9774L29.8161 32.8316L30.7829 32.1177C30.908 32.0252 30.8436 31.8267 30.6879 31.8255L29.4862 31.8162L29.1059 30.6761C29.0566 30.5285 28.8479 30.5285 28.7987 30.6761Z" fill="#FFE15A"/>
</g>
</g>
<defs>
<clipPath id="clip0_16_151779">
<rect width="45" height="45" rx="22.5" fill="white"/>
</clipPath>
<clipPath id="clip1_16_151779">
<rect width="60" height="45" fill="white" transform="translate(-7.5)"/>
</clipPath>
</defs>
</svg>
