<svg width="45" height="45" viewBox="0 0 45 45" fill="none" xmlns="http://www.w3.org/2000/svg">
<g clip-path="url(#clip0_16_151738)">
<g clip-path="url(#clip1_16_151738)">
<path d="M-7.5 0H52.5V15H-7.5V0Z" fill="#FF9933"/>
<path d="M-7.5 15H52.5V30H-7.5V15Z" fill="white"/>
<path d="M-7.5 30H52.5V45H-7.5V30Z" fill="#128807"/>
<path d="M22.5 28.5C25.8137 28.5 28.5 25.8137 28.5 22.5C28.5 19.1863 25.8137 16.5 22.5 16.5C19.1863 16.5 16.5 19.1863 16.5 22.5C16.5 25.8137 19.1863 28.5 22.5 28.5Z" fill="#000088"/>
<path d="M22.5 27.75C25.3995 27.75 27.75 25.3995 27.75 22.5C27.75 19.6005 25.3995 17.25 22.5 17.25C19.6005 17.25 17.25 19.6005 17.25 22.5C17.25 25.3995 19.6005 27.75 22.5 27.75Z" fill="white"/>
<path d="M22.5 23.55C23.0799 23.55 23.55 23.0799 23.55 22.5C23.55 21.9201 23.0799 21.45 22.5 21.45C21.9201 21.45 21.45 21.9201 21.45 22.5C21.45 23.0799 21.9201 23.55 22.5 23.55Z" fill="#000088"/>
<path d="M27.6697 23.4549C27.8176 23.4744 27.9532 23.3703 27.9727 23.2225C27.9921 23.0746 27.8881 22.939 27.7402 22.9195C27.5924 22.9001 27.4568 23.0041 27.4373 23.152C27.4178 23.2998 27.5219 23.4354 27.6697 23.4549Z" fill="#000088"/>
<path d="M22.4999 27.75L22.6799 24.6L22.4999 23.1L22.3199 24.6L22.4999 27.75Z" fill="#000088"/>
</g>
</g>
<defs>
<clipPath id="clip0_16_151738">
<rect width="45" height="45" rx="22.5" fill="white"/>
</clipPath>
<clipPath id="clip1_16_151738">
<rect width="60" height="45" fill="white" transform="translate(-7.5)"/>
</clipPath>
</defs>
</svg>
