<svg width="28" height="28" viewBox="0 0 28 28" fill="none" xmlns="http://www.w3.org/2000/svg">
<rect width="28" height="28" fill="#FF0420"/>
<path d="M9.15584 18.4445C8.22008 18.4445 7.45342 18.2243 6.85579 17.7839C6.26602 17.3357 5.97113 16.6988 5.97113 15.8731C5.97113 15.7001 5.99081 15.4878 6.03009 15.2361C6.13237 14.67 6.27783 13.9898 6.46655 13.1956C7.00125 11.0331 8.38132 9.9519 10.6067 9.9519C11.2122 9.9519 11.7547 10.0541 12.2344 10.2585C12.7141 10.4551 13.0916 10.754 13.3668 11.155C13.642 11.5482 13.7797 12.02 13.7797 12.5704C13.7797 12.7356 13.76 12.9439 13.7206 13.1956C13.6027 13.8954 13.4611 14.5757 13.296 15.2361C13.0208 16.3135 12.545 17.1195 11.8688 17.6542C11.1925 18.181 10.2882 18.4445 9.15584 18.4445ZM9.32098 16.746C9.76139 16.746 10.1349 16.6162 10.4416 16.3567C10.7561 16.0972 10.9802 15.7001 11.1139 15.1654C11.2947 14.4262 11.4324 13.7814 11.5267 13.231C11.5582 13.0658 11.5739 12.8968 11.5739 12.7237C11.5739 12.0082 11.2004 11.6504 10.4534 11.6504C10.013 11.6504 9.63554 11.7801 9.32098 12.0396C9.01434 12.2992 8.79413 12.6963 8.66049 13.231C8.51893 13.7578 8.37736 14.4027 8.23586 15.1654C8.20436 15.3226 8.18865 15.4878 8.18865 15.6608C8.18865 16.3843 8.56613 16.746 9.32098 16.746Z" fill="white"/>
<path d="M14.319 18.3258C14.2325 18.3258 14.1656 18.2983 14.1185 18.2432C14.0791 18.1803 14.0674 18.1096 14.0831 18.0309L15.7108 10.364C15.7266 10.2775 15.7698 10.2067 15.8406 10.1516C15.9114 10.0966 15.9861 10.0691 16.0647 10.0691H19.2023C20.0751 10.0691 20.7749 10.2499 21.3018 10.6117C21.8366 10.9734 22.1039 11.4963 22.1039 12.1804C22.1039 12.377 22.0803 12.5815 22.0331 12.7938C21.8366 13.6981 21.4395 14.3665 20.8418 14.799C20.2521 15.2315 19.4421 15.4477 18.412 15.4477H16.8196L16.277 18.0309C16.2613 18.1174 16.218 18.1882 16.1473 18.2432C16.0765 18.2983 16.0018 18.3258 15.9232 18.3258H14.319ZM18.4946 13.82C18.8248 13.82 19.1118 13.7295 19.3556 13.5487C19.6072 13.3678 19.7724 13.1083 19.851 12.7702C19.8746 12.6365 19.8864 12.5186 19.8864 12.4164C19.8864 12.1883 19.8196 12.0153 19.6859 11.8974C19.5521 11.7715 19.3241 11.7087 19.0017 11.7087H17.5863L17.1381 13.82H18.4946Z" fill="white"/>
</svg>
