<svg width="28" height="28" viewBox="0 0 28 28" fill="none" xmlns="http://www.w3.org/2000/svg">
<g clip-path="url(#clip0_497_131)">
<path d="M28 0H0V28H28V0Z" fill="#7B3FE4"/>
<path d="M23 14.1901V18.2629C22.9986 18.5168 22.9315 18.7661 22.8053 18.9863C22.679 19.2064 22.4981 19.39 22.28 19.5189L18.7644 21.5511C18.5467 21.6813 18.2979 21.75 18.0444 21.75C17.7909 21.75 17.5421 21.6813 17.3244 21.5511L13.8088 19.5189C13.5907 19.39 13.4097 19.2064 13.2835 18.9863C13.1574 18.7661 13.0902 18.5168 13.0888 18.2629V17.1198L14.8888 16.0713V18.0583L18.0387 19.8928L21.1888 18.0583V14.3976L18.0387 12.563L10.6588 16.8531C10.439 16.9773 10.191 17.0426 9.93872 17.0426C9.68653 17.0426 9.43855 16.9773 9.21875 16.8531L5.70311 14.8124C5.48843 14.6816 5.31094 14.4974 5.18779 14.2776C5.06463 14.0579 4.99997 13.81 5 13.5579V9.48507C5.00145 9.2311 5.06858 8.98186 5.19477 8.76173C5.321 8.54158 5.50196 8.35805 5.71999 8.22912L9.23562 6.19697C9.45382 6.06801 9.70239 6 9.9556 6C10.2088 6 10.4575 6.06801 10.6757 6.19697L14.1912 8.22912C14.4093 8.35805 14.5902 8.54158 14.7165 8.76173C14.8427 8.98186 14.9098 9.2311 14.9113 9.48507V10.6282L13.1 11.6696V9.69399L9.95003 7.85939L6.79999 9.69399V13.3504L9.95003 15.185L17.33 10.8949C17.5498 10.7706 17.7978 10.7054 18.05 10.7054C18.3022 10.7054 18.5502 10.7706 18.77 10.8949L22.2857 12.9355C22.5024 13.065 22.6822 13.2486 22.8074 13.4685C22.9325 13.6883 22.9989 13.937 23 14.1901Z" fill="white"/>
</g>
<defs>
<clipPath id="clip0_497_131">
<rect width="28" height="28" fill="white"/>
</clipPath>
</defs>
</svg>
