<svg width="45" height="45" viewBox="0 0 45 45" fill="none" xmlns="http://www.w3.org/2000/svg">
<g clip-path="url(#clip0_16_151645)">
<g clip-path="url(#clip1_16_151645)">
<path fill-rule="evenodd" clip-rule="evenodd" d="M-9.375 0H58.125V45H-9.375V0Z" fill="white"/>
<path fill-rule="evenodd" clip-rule="evenodd" d="M-9.375 0H58.125V22.5H-9.375V0Z" fill="#DF0000"/>
<path fill-rule="evenodd" clip-rule="evenodd" d="M6.18752 3.76876C4.41171 4.15039 2.82127 5.13136 1.68321 6.54697C0.545155 7.96258 -0.071218 9.72663 -0.0624223 11.543C-0.0536265 13.3593 0.579803 15.1173 1.73152 16.5218C2.88323 17.9263 4.4831 18.8919 6.26252 19.2563C5.24314 19.5512 4.17556 19.6421 3.12101 19.5235C2.06646 19.405 1.04567 19.0795 0.117202 18.5656C-0.811268 18.0517 -1.62916 17.3596 -2.28956 16.529C-2.94996 15.6983 -3.43989 14.7454 -3.73123 13.725C-4.30989 11.6738 -4.05286 9.47701 -3.01636 7.61481C-1.97985 5.75261 -0.24819 4.37656 1.80002 3.78751C3.30002 3.35626 4.68752 3.34689 6.19689 3.76876H6.18752Z" fill="white"/>
<path fill-rule="evenodd" clip-rule="evenodd" d="M4.96875 10.3125L5.42812 11.7187L4.20938 10.8562L3.00937 11.7375L3.45 10.3125L2.25 9.44061L3.74063 9.42186L4.20938 8.01561L4.67812 9.42186H6.15937L4.96875 10.3125ZM6.60938 15.1875L7.07812 16.6031L5.85938 15.7406L4.65 16.6125L5.1 15.1969L3.9 14.3156L5.39062 14.3062L5.85 12.8906L6.31875 14.2969H7.81875L6.60938 15.1875ZM12.0938 15.15L12.5531 16.575L11.3344 15.7031L10.1344 16.575L10.575 15.1594L9.375 14.2875L10.8656 14.2687L11.3344 12.8625L11.8031 14.2687H13.2844L12.0938 15.15ZM13.725 10.3125L14.1844 11.7281L12.9656 10.8656L11.7656 11.7375L12.2156 10.3219L11.0062 9.44061L12.5062 9.43124L12.9562 8.01561L13.425 9.42186H14.925L13.725 10.3125ZM9.38438 7.09686L9.85313 8.52186L8.63438 7.64999L7.425 8.53124L7.875 7.10624L6.675 6.22499L8.15625 6.21561L8.625 4.79999L9.09375 6.20624H10.5938L9.38438 7.09686Z" fill="white"/>
</g>
</g>
<defs>
<clipPath id="clip0_16_151645">
<rect width="45" height="45" rx="22.5" fill="white"/>
</clipPath>
<clipPath id="clip1_16_151645">
<rect width="60" height="45" fill="white" transform="translate(-7.5)"/>
</clipPath>
</defs>
</svg>
