<svg width="25" height="24" viewBox="0 0 25 24" fill="none" xmlns="http://www.w3.org/2000/svg">
<path fill-rule="evenodd" clip-rule="evenodd" d="M12.4967 2C10.1227 2.00123 7.82647 2.84207 6.01871 4.37216C4.21095 5.90225 3.0095 8.02181 2.62919 10.3519C2.24889 12.6819 2.71451 15.0705 3.94283 17.0905C5.17114 19.1105 7.08204 20.6302 9.33384 21.3779C9.83062 21.4701 10.0177 21.1622 10.0177 20.9004C10.0177 20.6386 10.0078 19.8796 10.0045 19.0497C7.22251 19.6507 6.63465 17.8758 6.63465 17.8758C6.18093 16.7232 5.52517 16.4202 5.52517 16.4202C4.61771 15.8044 5.59307 15.816 5.59307 15.816C6.59823 15.8868 7.12647 16.8418 7.12647 16.8418C8.01737 18.3615 9.46631 17.9219 10.036 17.665C10.1254 17.0212 10.3854 16.5833 10.6718 16.3346C8.44957 16.0844 6.11469 15.2315 6.11469 11.4214C6.10091 10.4333 6.46968 9.47772 7.14469 8.75239C7.04202 8.50212 6.69923 7.49115 7.24238 6.11795C7.24238 6.11795 8.08195 5.85122 9.99291 7.13715C11.632 6.69146 13.3614 6.69146 15.0005 7.13715C16.9098 5.85122 17.7477 6.11795 17.7477 6.11795C18.2925 7.48786 17.9497 8.49883 17.847 8.75239C18.5242 9.47783 18.8937 10.4351 18.8787 11.4247C18.8787 15.243 16.5388 16.0844 14.3133 16.3297C14.6709 16.6392 14.9905 17.2435 14.9905 18.1721C14.9905 19.5025 14.9789 20.5728 14.9789 20.9004C14.9789 21.1655 15.1594 21.4751 15.6662 21.3779C17.9182 20.6301 19.8293 19.1101 21.0576 17.0898C22.2859 15.0694 22.7513 12.6805 22.3705 10.3502C21.9898 8.01998 20.7878 5.90039 18.9794 4.37056C17.171 2.84073 14.8743 2.00045 12.5 2H12.4967Z" fill="white" fill-opacity="0.4"/>
<path d="M6.28315 16.2765C6.26162 16.3259 6.18214 16.3407 6.11756 16.3062C6.05297 16.2716 6.00496 16.2074 6.02814 16.1563C6.05132 16.1053 6.12915 16.0921 6.19373 16.1267C6.25831 16.1613 6.30799 16.2271 6.28315 16.2765Z" fill="white" fill-opacity="0.4"/>
<path d="M6.6892 16.7263C6.6549 16.7435 6.61567 16.7483 6.57821 16.7398C6.54075 16.7314 6.5074 16.7103 6.48386 16.6802C6.41928 16.611 6.40603 16.5155 6.4557 16.4727C6.50538 16.4299 6.59481 16.4497 6.65939 16.5188C6.72397 16.588 6.73888 16.6835 6.6892 16.7263Z" fill="white" fill-opacity="0.4"/>
<path d="M7.08259 17.2978C7.02132 17.3406 6.91698 17.2978 6.85903 17.2122C6.843 17.1968 6.83026 17.1784 6.82155 17.1581C6.81284 17.1377 6.80835 17.1158 6.80835 17.0937C6.80835 17.0715 6.81284 17.0496 6.82155 17.0292C6.83026 17.0089 6.843 16.9905 6.85903 16.9751C6.9203 16.9339 7.02463 16.9751 7.08259 17.0591C7.14054 17.143 7.1422 17.255 7.08259 17.2978Z" fill="white" fill-opacity="0.4"/>
<path d="M7.61852 17.8504C7.56387 17.9113 7.45292 17.8948 7.36185 17.8125C7.27077 17.7302 7.24924 17.6182 7.30388 17.559C7.35853 17.4997 7.46948 17.5161 7.56387 17.5968C7.65826 17.6775 7.67648 17.7911 7.61852 17.8504Z" fill="white" fill-opacity="0.4"/>
<path d="M8.36832 18.1743C8.34348 18.2517 8.23088 18.2863 8.11827 18.2533C8.00567 18.2204 7.93115 18.1282 7.95268 18.0492C7.97421 17.9701 8.08847 17.9339 8.20273 17.9701C8.31699 18.0064 8.38985 18.0936 8.36832 18.1743Z" fill="white" fill-opacity="0.4"/>
<path d="M9.18572 18.2289C9.18572 18.3096 9.09299 18.3787 8.97376 18.3804C8.85454 18.382 8.75684 18.3162 8.75684 18.2355C8.75684 18.1548 8.84956 18.0857 8.96879 18.084C9.08802 18.0824 9.18572 18.1466 9.18572 18.2289Z" fill="white" fill-opacity="0.4"/>
<path d="M9.94825 18.1029C9.96316 18.1836 9.88036 18.2676 9.76113 18.2873C9.6419 18.3071 9.53758 18.2593 9.52267 18.1803C9.50777 18.1013 9.59388 18.0157 9.7098 17.9943C9.82571 17.9729 9.93335 18.0222 9.94825 18.1029Z" fill="white" fill-opacity="0.4"/>
</svg>
