<svg width="25" height="24" viewBox="0 0 25 24" fill="none" xmlns="http://www.w3.org/2000/svg">
<path d="M8.77501 20.2622C16.3272 20.2622 20.4566 14.0043 20.4566 8.58067C20.4566 8.40187 20.4566 8.22307 20.4481 8.05279C21.2484 7.47382 21.9466 6.75011 22.5 5.92422C21.7678 6.24776 20.9759 6.46913 20.1415 6.57131C20.993 6.06045 21.6401 5.26011 21.9466 4.298C21.1547 4.76628 20.2778 5.10685 19.3412 5.29417C18.592 4.49383 17.5277 4 16.3442 4C14.0794 4 12.2403 5.83908 12.2403 8.10387C12.2403 8.42741 12.2744 8.74244 12.351 9.04044C8.93678 8.87016 5.91422 7.23542 3.88782 4.74926C3.53874 5.35377 3.3344 6.06045 3.3344 6.80971C3.3344 8.23159 4.05811 9.4917 5.16496 10.2239C4.49234 10.2069 3.86228 10.0196 3.30885 9.71307C3.30885 9.7301 3.30885 9.74712 3.30885 9.76415C3.30885 11.7565 4.72222 13.4083 6.60387 13.7914C6.2633 13.8851 5.89719 13.9361 5.52256 13.9361C5.25862 13.9361 5.00319 13.9106 4.74777 13.8595C5.26714 15.4942 6.78267 16.6777 8.57918 16.7118C7.17433 17.8101 5.40336 18.4657 3.47914 18.4657C3.14708 18.4657 2.82354 18.4487 2.5 18.4061C4.29651 19.5811 6.45913 20.2622 8.77501 20.2622Z" fill="white" fill-opacity="0.4"/>
</svg>
