<svg xmlns="http://www.w3.org/2000/svg" width="1em" height="1em" viewBox="0 0 32 32"><path fill="white" d="M11.807 9.776c.011 0 .005 0 0 0M8.109 7.927c.011 0 .005 0 0 0m22.12 2.854c-.667-1.604-2.021-3.333-3.079-3.885c.865 1.692 1.365 3.396 1.552 4.661l.005.027c-1.739-4.329-4.681-6.073-7.088-9.871c-.12-.192-.24-.385-.36-.588c-.063-.104-.115-.208-.172-.319a2.774 2.774 0 0 1-.224-.609c0-.02-.015-.036-.036-.041h-.031l-.005.005c-.005 0-.011.005-.011.005s0-.005.005-.011c-3.417 2-4.828 5.505-5.193 7.729a8.308 8.308 0 0 0-3.041.776a.396.396 0 0 0-.197.489a.387.387 0 0 0 .525.224a7.4 7.4 0 0 1 2.651-.687l.089-.011c.125-.005.255-.011.38-.011a7.702 7.702 0 0 1 2.203.307l.125.037c.12.036.235.077.355.12c.083.031.172.063.255.099c.068.025.136.057.203.083c.105.048.209.1.313.152l.14.067c.104.053.204.109.303.167c.063.037.125.073.187.115a7.824 7.824 0 0 1 2.683 2.776c-.817-.572-2.287-1.145-3.697-.895c5.52 2.76 4.036 12.265-3.615 11.905a6.64 6.64 0 0 1-2.448-.568a12.849 12.849 0 0 1-.26-.124c-1.876-.969-3.423-2.803-3.615-5.027c0 0 .708-2.64 5.072-2.64c.475 0 1.824-1.319 1.849-1.699c-.011-.125-2.683-1.187-3.724-2.213c-.557-.547-.817-.812-1.052-1.011a3.745 3.745 0 0 0-.401-.301a7.116 7.116 0 0 1-.041-3.751c-1.579.719-2.803 1.855-3.693 2.855h-.009c-.609-.771-.563-3.313-.532-3.844c-.005-.036-.453.229-.511.271c-.536.385-1.041.813-1.5 1.287a13.468 13.468 0 0 0-1.437 1.719a12.951 12.951 0 0 0-2.057 4.645a18.16 18.16 0 0 0-.249 1.417a7.57 7.57 0 0 0-.052.359a9.734 9.734 0 0 0-.089.881L.7 15.9c-.009.172-.02.339-.031.511v.077c0 8.48 6.875 15.355 15.355 15.355c7.593 0 13.9-5.516 15.135-12.756c.027-.197.047-.395.068-.593c.307-2.631-.031-5.401-.995-7.713z"/></svg>